<?xml version="1.0" encoding="utf-8"?>
<!-- Generator: Adobe Illustrator 26.0.1, SVG Export Plug-In . SVG Version: 6.00 Build 0)  -->
<svg version="1.1" id="Layer_1" xmlns="http://www.w3.org/2000/svg" xmlns:xlink="http://www.w3.org/1999/xlink" x="0px" y="0px"
	 viewBox="0 0 1080 1080" style="enable-background:new 0 0 1080 1080;" xml:space="preserve">
<style type="text/css">
	.st0{fill:#110305;}
	.st1{fill:#C0B6A6;}
	.st2{fill:#F5EBE0;}
</style>
<g>
	<path class="st0" d="M540,934.4c-54.26,0-105.03-28.89-132.85-75.49H272.12V224.28h133.18c27.43-48.57,78.92-78.68,134.71-78.68
		c55.79,0,107.27,30.11,134.71,78.68h133.18v634.64H672.85C645.03,905.52,594.26,934.4,540,934.4z M276.8,854.23h133.03l0.68,1.16
		c26.83,45.85,76.45,74.33,129.49,74.33s102.66-28.48,129.49-74.33l0.68-1.16H803.2V228.96H671.95l-0.67-1.21
		c-26.43-47.79-76.74-77.47-131.28-77.47c-54.54,0-104.85,29.69-131.28,77.47l-0.67,1.21H276.8V854.23z"/>
	<path class="st0" d="M540,979.7c-62.61,0-121.03-33.47-152.8-87.43H244V190.93h141.36c31.38-55.94,90.5-90.63,154.64-90.63
		s123.26,34.69,154.64,90.63H836v701.34H692.8C661.03,946.24,602.61,979.7,540,979.7z M248.69,887.58h141.21l0.68,1.17
		c30.78,53.21,88.04,86.26,149.43,86.26s118.65-33.05,149.43-86.26l0.68-1.17h141.21V195.61H691.87l-0.67-1.21
		c-30.38-55.15-88.31-89.42-151.21-89.42s-120.83,34.26-151.21,89.42l-0.67,1.21H248.69V887.58z"/>
	<g>
		<path class="st0" d="M329.12,245.24v2.2c-2.05,0.07-3.6,0.35-4.65,0.82c-1.06,0.48-1.74,1.36-2.06,2.64
			c-0.32,1.28-0.48,3.28-0.48,5.99v54.54c0,2.64,0.18,4.62,0.53,5.94c0.35,1.32,1.04,2.2,2.06,2.64c1.02,0.44,2.56,0.73,4.61,0.88
			v2.2c-1.73-0.15-3.9-0.24-6.53-0.27c-2.62-0.04-5.28-0.06-7.97-0.06c-3.07,0-5.97,0.02-8.68,0.06c-2.72,0.04-4.88,0.13-6.48,0.27
			v-2.2c2.05-0.15,3.58-0.44,4.61-0.88c1.02-0.44,1.71-1.32,2.06-2.64c0.35-1.32,0.53-3.3,0.53-5.94v-54.54
			c0-2.71-0.18-4.71-0.53-5.99c-0.35-1.28-1.06-2.16-2.11-2.64c-1.06-0.48-2.58-0.75-4.56-0.82v-2.2c1.6,0.07,3.76,0.15,6.48,0.22
			c2.72,0.07,5.61,0.11,8.68,0.11c2.69,0,5.34-0.04,7.97-0.11C325.22,245.38,327.39,245.31,329.12,245.24z M324.71,281.52
			c5.12,0,9.58,0.42,13.39,1.26c3.81,0.84,6.88,2.35,9.21,4.51c2.33,2.16,3.92,5.33,4.75,9.51l2.78,14.74
			c0.51,3.01,1.09,5.08,1.73,6.21c0.64,1.14,1.6,1.7,2.88,1.7c0.77-0.07,1.42-0.31,1.97-0.71c0.54-0.4,1.13-1.01,1.78-1.81
			l1.34,1.32c-1.73,2.2-3.58,3.81-5.57,4.84c-1.98,1.03-4.38,1.54-7.2,1.54c-3.46,0-6.3-0.83-8.54-2.47
			c-2.24-1.65-3.71-4.78-4.41-9.4l-2.59-16.82c-0.45-2.93-1.1-5.31-1.97-7.15c-0.86-1.83-2.16-3.19-3.89-4.07
			c-1.73-0.88-4.13-1.32-7.2-1.32h-3.74v-1.87H324.71z M321.54,283.39v-1.87c2.75-0.07,5.25-0.93,7.49-2.58
			c2.24-1.65,4.64-4.2,7.2-7.64l5.66-7.81c2.49-3.3,3.93-6.14,4.32-8.52c0.38-2.38-0.03-4.23-1.25-5.55
			c-1.22-1.32-3.1-2.02-5.66-2.09v-2.09c2.37,0.07,4.61,0.15,6.72,0.22c2.11,0.07,4.57,0.11,7.39,0.11c3.77,0,6.81-0.11,9.12-0.33
			v2.09c-2.11,0.51-4.32,1.54-6.62,3.08c-2.3,1.54-4.77,4.03-7.39,7.48l-19,25.51H321.54z"/>
		<path class="st0" d="M400.52,245.02l23.32,68.84c0.89,2.64,1.9,4.45,3.02,5.44c1.12,0.99,2.13,1.52,3.02,1.59v2.2
			c-1.92-0.15-4.17-0.24-6.77-0.27c-2.59-0.04-5.2-0.06-7.82-0.06c-2.94,0-5.73,0.02-8.35,0.06c-2.62,0.04-4.7,0.13-6.24,0.27v-2.2
			c3.26-0.15,5.33-0.79,6.19-1.92c0.86-1.14,0.66-3.57-0.62-7.31l-16.31-51.13l1.73-2.86l-14.59,43.55
			c-1.79,5.43-2.67,9.53-2.64,12.32c0.03,2.79,0.82,4.67,2.35,5.66c1.54,0.99,3.58,1.56,6.14,1.7v2.2
			c-2.11-0.15-4.13-0.24-6.05-0.27c-1.92-0.04-3.87-0.06-5.85-0.06c-1.41,0-2.74,0.02-3.98,0.06c-1.25,0.04-2.35,0.13-3.31,0.27
			v-2.2c1.34-0.29,2.72-1.28,4.13-2.97c1.41-1.69,2.78-4.54,4.13-8.58l21.88-64.33c1.02,0.07,2.13,0.11,3.31,0.11
			C398.39,245.13,399.5,245.09,400.52,245.02z M407.24,291.42v2.2h-28.6l0.96-2.2H407.24z"/>
		<path class="st0" d="M432.29,245.24c1.6,0.07,3.76,0.15,6.48,0.22c2.72,0.07,5.42,0.11,8.11,0.11c3.07,0,6.05-0.04,8.93-0.11
			c2.88-0.07,4.93-0.11,6.14-0.11c7.93,0,13.87,1.61,17.8,4.84c3.93,3.23,5.9,7.37,5.9,12.43c0,2.57-0.67,5.17-2.02,7.81
			c-1.34,2.64-3.42,4.99-6.24,7.04c-2.82,2.05-6.46,3.56-10.94,4.51v0.22c6.01,0.51,10.78,1.76,14.3,3.74
			c3.52,1.98,6.05,4.36,7.58,7.15c1.54,2.79,2.3,5.68,2.3,8.69c0,6.89-2.35,12.17-7.05,15.84c-4.7,3.67-11.18,5.5-19.43,5.5
			c-1.54,0-3.76-0.05-6.67-0.16c-2.91-0.11-6.38-0.17-10.41-0.17c-2.82,0-5.58,0.02-8.3,0.06c-2.72,0.04-4.88,0.13-6.48,0.27v-2.2
			c2.05-0.15,3.58-0.44,4.61-0.88c1.02-0.44,1.71-1.32,2.06-2.64c0.35-1.32,0.53-3.3,0.53-5.94v-54.54c0-2.71-0.18-4.71-0.53-5.99
			c-0.35-1.28-1.06-2.16-2.11-2.64c-1.06-0.48-2.58-0.75-4.56-0.82V245.24z M460.69,247.44c-2.5,0-4.11,0.62-4.85,1.87
			c-0.74,1.25-1.1,3.78-1.1,7.59v54.54c0,3.81,0.42,6.29,1.25,7.42c0.83,1.14,2.62,1.7,5.37,1.7c4.61,0,7.98-1.67,10.12-5
			c2.14-3.34,3.22-8.08,3.22-14.24c0-5.64-1.23-10.01-3.7-13.09c-2.46-3.08-6.54-4.62-12.24-4.62h-8.16v-1.87h8.25
			c3.01,0,5.31-0.83,6.91-2.47c1.6-1.65,2.72-3.85,3.36-6.6c0.64-2.75,0.96-5.7,0.96-8.85c0-5.42-0.74-9.51-2.21-12.26
			C466.42,248.81,464.02,247.44,460.69,247.44z"/>
		<path class="st0" d="M544.95,284.27l-0.19,1.87H534.4c-1.98,0-3.54,0.68-4.65,2.03c-1.12,1.36-2,3.19-2.64,5.5
			c-0.64,2.31-1.18,5-1.63,8.08l-1.73,11c-0.7,4.55-2.18,7.66-4.41,9.35c-2.24,1.69-5.06,2.53-8.45,2.53c-2.75,0-5.12-0.49-7.1-1.48
			c-1.98-0.99-3.81-2.62-5.47-4.89l1.34-1.32c0.64,0.81,1.23,1.41,1.78,1.81c0.54,0.4,1.23,0.64,2.06,0.71
			c1.21,0,2.14-0.59,2.78-1.76c0.64-1.17,1.21-3.22,1.73-6.16l2.02-11.33c0.83-4.69,2.72-8.06,5.66-10.12
			c2.94-2.05,7.16-3.48,12.67-4.29c1.21-0.22,2.43-0.4,3.65-0.55c1.21-0.15,2.83-0.31,4.85-0.49
			C538.86,284.59,541.56,284.42,544.95,284.27z M563.86,245.24v2.2c-2.05,0.07-3.58,0.35-4.61,0.82c-1.02,0.48-1.71,1.36-2.06,2.64
			c-0.35,1.28-0.53,3.28-0.53,5.99v54.54c0,2.64,0.18,4.62,0.53,5.94c0.35,1.32,1.04,2.2,2.06,2.64c1.02,0.44,2.56,0.73,4.61,0.88
			v2.2c-1.6-0.15-3.76-0.24-6.48-0.27c-2.72-0.04-5.61-0.06-8.68-0.06c-2.62,0-5.28,0.02-7.97,0.06c-2.69,0.04-4.86,0.13-6.53,0.27
			v-2.2c1.98-0.15,3.5-0.44,4.56-0.88c1.06-0.44,1.76-1.32,2.11-2.64c0.35-1.32,0.53-3.3,0.53-5.94v-54.54
			c0-3.81-0.37-6.34-1.1-7.59c-0.74-1.25-2.35-1.87-4.85-1.87c-4.35,0-7.42,1.58-9.21,4.73c-1.79,3.15-2.69,7.55-2.69,13.2
			c0,3.45,0.35,6.58,1.06,9.4c0.7,2.82,2.05,5.06,4.03,6.71c1.98,1.65,4.86,2.47,8.64,2.47h8.25v2.2h-9.21
			c-7.55,0-13.4-0.99-17.56-2.97c-4.16-1.98-7.05-4.58-8.69-7.81c-1.63-3.22-2.45-6.63-2.45-10.23c0-6.3,2.19-11.18,6.57-14.63
			c4.38-3.45,11.05-5.17,20.01-5.17c1.21,0,3.25,0.04,6.09,0.11c2.85,0.07,5.84,0.11,8.97,0.11c2.69,0,5.39-0.04,8.11-0.11
			C560.1,245.38,562.26,245.31,563.86,245.24z"/>
		<path class="st0" d="M570.1,245.24c1.6,0.07,3.76,0.15,6.48,0.22c2.72,0.07,5.42,0.11,8.11,0.11c3.07,0,6.05-0.04,8.93-0.11
			c2.88-0.07,4.93-0.11,6.14-0.11c8.89,0,15.55,2.02,19.96,6.05c4.41,4.03,6.62,9.24,6.62,15.62c0,2.64-0.45,5.41-1.34,8.3
			c-0.9,2.9-2.41,5.57-4.56,8.03c-2.14,2.46-5.07,4.45-8.78,5.99c-3.71,1.54-8.38,2.31-14.01,2.31h-9.79v-2.2h8.83
			c3.78,0,6.64-0.99,8.59-2.97c1.95-1.98,3.29-4.58,4.03-7.81c0.73-3.23,1.1-6.71,1.1-10.45c0-6.96-0.9-12.17-2.69-15.62
			c-1.79-3.45-4.86-5.17-9.21-5.17c-2.5,0-4.11,0.62-4.85,1.87c-0.74,1.25-1.1,3.78-1.1,7.59v53.88c0,2.86,0.25,4.99,0.77,6.38
			c0.51,1.39,1.5,2.31,2.98,2.75c1.47,0.44,3.65,0.7,6.53,0.77v2.42c-1.98-0.07-4.54-0.15-7.68-0.22c-3.14-0.07-6.43-0.11-9.88-0.11
			c-2.75,0-5.44,0.04-8.06,0.11c-2.63,0.07-4.99,0.15-7.1,0.22v-2.2c2.05-0.15,3.58-0.44,4.61-0.88c1.02-0.44,1.71-1.32,2.06-2.64
			c0.35-1.32,0.53-3.3,0.53-5.94v-54.54c0-2.71-0.18-4.71-0.53-5.99c-0.35-1.28-1.06-2.16-2.11-2.64c-1.06-0.48-2.58-0.75-4.56-0.82
			V245.24z"/>
		<path class="st0" d="M630.94,323.09v-2.2c2.05-0.15,3.58-0.44,4.61-0.88c1.02-0.44,1.71-1.32,2.06-2.64
			c0.35-1.32,0.53-3.3,0.53-5.94v-54.54c0-2.71-0.18-4.71-0.53-5.99c-0.35-1.28-1.06-2.16-2.11-2.64c-1.06-0.48-2.58-0.75-4.56-0.82
			v-2.2c1.66,0.07,3.84,0.15,6.53,0.22c2.69,0.07,5.57,0.11,8.64,0.11c2.69,0,5.34-0.04,7.97-0.11c2.62-0.07,4.8-0.15,6.53-0.22v2.2
			c-2.05,0.07-3.6,0.35-4.66,0.82c-1.06,0.48-1.74,1.36-2.06,2.64c-0.32,1.28-0.48,3.28-0.48,5.99v54.54c0,2.64,0.18,4.62,0.53,5.94
			c0.35,1.32,1.06,2.2,2.11,2.64c1.06,0.44,2.57,0.73,4.56,0.88v2.2c-1.73-0.15-3.9-0.24-6.53-0.27c-2.63-0.04-5.28-0.06-7.97-0.06
			c-3.07,0-5.95,0.02-8.64,0.06C634.78,322.85,632.61,322.95,630.94,323.09z M647.16,285.04v-2.2h37.91v2.2H647.16z M671.63,323.09
			v-2.2c2.05-0.15,3.58-0.44,4.61-0.88c1.02-0.44,1.71-1.32,2.06-2.64c0.35-1.32,0.53-3.3,0.53-5.94v-54.54
			c0-2.71-0.18-4.71-0.53-5.99c-0.35-1.28-1.06-2.16-2.11-2.64c-1.06-0.48-2.58-0.75-4.56-0.82v-2.2c1.73,0.07,3.98,0.15,6.77,0.22
			c2.78,0.07,5.55,0.11,8.3,0.11c2.94,0,5.71-0.04,8.3-0.11c2.59-0.07,4.69-0.15,6.28-0.22v2.2c-2.05,0.07-3.6,0.35-4.65,0.82
			c-1.06,0.48-1.74,1.36-2.06,2.64c-0.32,1.28-0.48,3.28-0.48,5.99v54.54c0,2.64,0.18,4.62,0.53,5.94c0.35,1.32,1.06,2.2,2.11,2.64
			c1.06,0.44,2.57,0.73,4.56,0.88v2.2c-1.6-0.15-3.69-0.24-6.28-0.27c-2.59-0.04-5.36-0.06-8.3-0.06c-2.75,0-5.52,0.02-8.3,0.06
			C675.62,322.85,673.36,322.95,671.63,323.09z"/>
		<path class="st0" d="M749.08,284.27l-0.19,1.87h-10.37c-1.98,0-3.54,0.68-4.65,2.03c-1.12,1.36-2,3.19-2.64,5.5
			c-0.64,2.31-1.19,5-1.63,8.08l-1.73,11c-0.7,4.55-2.18,7.66-4.41,9.35c-2.24,1.69-5.06,2.53-8.45,2.53c-2.75,0-5.12-0.49-7.1-1.48
			c-1.98-0.99-3.81-2.62-5.47-4.89l1.34-1.32c0.64,0.81,1.23,1.41,1.78,1.81c0.54,0.4,1.23,0.64,2.06,0.71
			c1.21,0,2.14-0.59,2.78-1.76c0.64-1.17,1.21-3.22,1.73-6.16l2.02-11.33c0.83-4.69,2.72-8.06,5.66-10.12
			c2.94-2.05,7.16-3.48,12.67-4.29c1.21-0.22,2.43-0.4,3.65-0.55c1.21-0.15,2.83-0.31,4.85-0.49
			C742.99,284.59,745.69,284.42,749.08,284.27z M767.99,245.24v2.2c-2.05,0.07-3.58,0.35-4.61,0.82c-1.02,0.48-1.71,1.36-2.06,2.64
			c-0.35,1.28-0.53,3.28-0.53,5.99v54.54c0,2.64,0.18,4.62,0.53,5.94c0.35,1.32,1.04,2.2,2.06,2.64c1.02,0.44,2.56,0.73,4.61,0.88
			v2.2c-1.6-0.15-3.76-0.24-6.48-0.27c-2.72-0.04-5.61-0.06-8.69-0.06c-2.63,0-5.28,0.02-7.97,0.06c-2.69,0.04-4.86,0.13-6.53,0.27
			v-2.2c1.98-0.15,3.5-0.44,4.56-0.88c1.06-0.44,1.76-1.32,2.11-2.64c0.35-1.32,0.53-3.3,0.53-5.94v-54.54
			c0-3.81-0.37-6.34-1.1-7.59c-0.74-1.25-2.35-1.87-4.85-1.87c-4.35,0-7.42,1.58-9.21,4.73c-1.79,3.15-2.69,7.55-2.69,13.2
			c0,3.45,0.35,6.58,1.06,9.4c0.7,2.82,2.05,5.06,4.03,6.71c1.98,1.65,4.86,2.47,8.64,2.47h8.25v2.2h-9.21
			c-7.55,0-13.41-0.99-17.56-2.97c-4.16-1.98-7.05-4.58-8.68-7.81c-1.63-3.22-2.45-6.63-2.45-10.23c0-6.3,2.19-11.18,6.57-14.63
			c4.38-3.45,11.05-5.17,20.01-5.17c1.21,0,3.25,0.04,6.09,0.11c2.85,0.07,5.84,0.11,8.97,0.11c2.69,0,5.39-0.04,8.11-0.11
			C764.23,245.38,766.39,245.31,767.99,245.24z"/>
	</g>
	<g>
		<path class="st0" d="M475.07,180.96l0.46,0.84c-0.83,0.5-1.41,0.95-1.74,1.37c-0.32,0.42-0.42,0.91-0.3,1.48
			c0.12,0.57,0.47,1.37,1.04,2.4L486,207.79c0.56,1,1.04,1.72,1.47,2.14c0.42,0.42,0.89,0.6,1.41,0.53
			c0.52-0.07,1.21-0.31,2.09-0.72l0.46,0.84c-0.77,0.36-1.73,0.84-2.86,1.45c-1.13,0.61-2.29,1.24-3.45,1.88
			c-1.27,0.7-2.46,1.37-3.57,2c-1.11,0.63-1.99,1.16-2.65,1.6l-0.46-0.84c0.87-0.55,1.49-1.04,1.86-1.47
			c0.37-0.42,0.5-0.93,0.38-1.52c-0.12-0.59-0.45-1.39-1.01-2.39l-12.51-22.63l0.28-0.15l5.11,32.56l-0.64,0.35l-25.63-21.01
			l11.07,20.04c0.85,1.53,1.58,2.67,2.19,3.4c0.61,0.73,1.29,1.13,2.02,1.17c0.74,0.05,1.73-0.18,2.97-0.69l0.46,0.84
			c-0.53,0.22-1.22,0.56-2.05,1c-0.83,0.44-1.6,0.86-2.32,1.25c-0.61,0.34-1.23,0.69-1.86,1.05c-0.63,0.37-1.14,0.69-1.53,0.98
			l-0.46-0.84c0.77-0.61,1.28-1.2,1.52-1.77c0.24-0.57,0.22-1.28-0.06-2.12c-0.28-0.85-0.79-1.94-1.53-3.28l-10.4-18.83
			c-0.57-1.03-1.06-1.75-1.48-2.16c-0.42-0.41-0.89-0.58-1.43-0.52c-0.54,0.06-1.23,0.3-2.06,0.73l-0.46-0.84
			c0.44-0.21,0.99-0.47,1.64-0.8c0.65-0.32,1.28-0.65,1.89-0.99c1.14-0.63,2.25-1.26,3.34-1.9c1.09-0.64,2.04-1.2,2.88-1.7
			l20.07,16.59l-0.46,1.51l-4.19-26.47c0.45-0.25,0.92-0.51,1.39-0.77c0.48-0.26,0.95-0.53,1.43-0.79c1.17-0.64,2.31-1.29,3.42-1.94
			C473.42,181.94,474.34,181.39,475.07,180.96z"/>
		<path class="st0" d="M516.33,170.79l0.21,0.93c-0.6,0.39-1.13,1.08-1.59,2.06c-0.47,0.98-0.95,2.39-1.44,4.23l-5.18,22.58
			l-0.97,0.46l-17.67-20.43c-0.79-0.9-1.46-1.5-2.03-1.81c-0.56-0.3-1.07-0.43-1.53-0.4l-0.21-0.93c0.42-0.06,0.98-0.16,1.68-0.3
			c0.7-0.14,1.43-0.28,2.21-0.44c0.77-0.15,1.45-0.3,2.05-0.43c0.68-0.15,1.47-0.33,2.37-0.55c0.9-0.21,1.78-0.42,2.63-0.63
			c0.85-0.2,1.53-0.38,2.03-0.52l0.21,0.93c-0.81,0.24-1.41,0.67-1.79,1.28c-0.38,0.61-0.1,1.56,0.84,2.85l11.4,13.3l-1.2,3.44
			l3.26-14.37c0.6-2.48,0.79-4.37,0.57-5.66c-0.22-1.29-0.73-2.12-1.53-2.5c-0.8-0.38-1.81-0.45-3.03-0.22l-0.21-0.93
			c1.01-0.19,1.97-0.37,2.86-0.53c0.89-0.16,1.79-0.34,2.67-0.54c0.68-0.15,1.31-0.3,1.88-0.46
			C515.38,171.07,515.89,170.92,516.33,170.79z M507.89,198.25l0.93,0.19l-1.11,4.89c-0.21,0.89-0.41,1.61-0.6,2.14
			c-0.19,0.53-0.41,1.01-0.67,1.42c-0.36,0.6-0.86,1.08-1.48,1.43c-0.62,0.35-1.27,0.6-1.95,0.75c-1.51,0.33-2.79,0.22-3.84-0.33
			c-1.05-0.55-1.7-1.37-1.94-2.46c-0.25-1.12-0.06-2.1,0.56-2.94c0.62-0.84,1.48-1.38,2.58-1.62c1.12-0.25,2.1-0.19,2.92,0.16
			c0.82,0.36,1.34,1.02,1.55,1.98c0.19,0.87,0.06,1.67-0.38,2.38c-0.45,0.72-1.05,1.31-1.82,1.77c0.14,0.07,0.45,0.05,0.92-0.05
			c0.86-0.19,1.53-0.67,2.03-1.45c0.5-0.78,0.88-1.8,1.16-3.07L507.89,198.25z"/>
		<path class="st0" d="M538.15,169.75c3.06,0.05,5.54,0.73,7.45,2.03c1.9,1.31,2.84,3.09,2.8,5.35c-0.02,1.34-0.37,2.52-1.06,3.54
			c-0.68,1.03-1.56,1.92-2.64,2.68c-1.07,0.76-2.23,1.39-3.46,1.88c-1.24,0.49-2.43,0.85-3.59,1.09c1.45,0.06,2.91,0.27,4.35,0.64
			c1.45,0.37,2.77,0.94,3.95,1.69c1.18,0.75,2.13,1.68,2.84,2.79c0.71,1.11,1.05,2.42,1.03,3.91c-0.03,1.56-0.45,2.95-1.27,4.16
			c-0.82,1.21-1.92,2.22-3.28,3.01c-1.36,0.79-2.89,1.39-4.6,1.79s-3.45,0.59-5.24,0.56c-1.55-0.03-3.04-0.22-4.47-0.6
			c-1.43-0.37-2.66-0.97-3.68-1.78c-0.66-0.52-1.23-1.16-1.72-1.92c-0.49-0.76-0.72-1.6-0.71-2.52c0.02-1.21,0.41-2.16,1.18-2.85
			c0.77-0.69,1.68-1.02,2.74-1.01c1.06,0.02,1.92,0.35,2.57,1c0.66,0.65,0.97,1.61,0.95,2.88c-0.02,0.99-0.34,1.83-0.97,2.52
			c-0.63,0.69-1.5,1.17-2.59,1.44c0.57,0.49,1.36,0.9,2.39,1.23c1.03,0.34,2.22,0.51,3.58,0.54c2.51,0.04,4.49-0.67,5.92-2.13
			c1.43-1.46,2.17-3.57,2.22-6.35c0.02-1.47-0.17-2.84-0.57-4.12c-0.4-1.28-1.05-2.33-1.95-3.14c-0.9-0.81-2.04-1.26-3.43-1.35
			c-0.31,0.15-0.62,0.29-0.94,0.41c-0.32,0.12-0.66,0.18-1.03,0.17c-0.24,0-0.46-0.07-0.66-0.2c-0.2-0.13-0.29-0.34-0.29-0.63
			c0.01-0.51,0.36-0.76,1.06-0.75c0.3,0,0.62,0.04,0.95,0.11c0.33,0.07,0.65,0.14,0.95,0.21c1.13-0.46,2.01-1.11,2.65-1.94
			c0.63-0.83,1.08-1.79,1.34-2.87c0.26-1.08,0.4-2.21,0.42-3.39c0.04-2.36-0.37-4.07-1.21-5.13s-2.09-1.61-3.72-1.64
			c-1.73-0.03-3.16,0.42-4.29,1.34c-1.14,0.92-2.01,2.15-2.63,3.69c-0.62,1.54-1,3.23-1.15,5.07l-1.04-0.02
			c0.03-2.01,0.05-3.7,0.06-5.07c0.01-1.37,0.01-2.53,0.01-3.49c0-0.96-0.02-1.8-0.07-2.53l1.05,0.02c0.08,0.86,0.19,1.51,0.33,1.94
			c0.14,0.43,0.4,0.65,0.76,0.66c0.24,0,0.61-0.16,1.1-0.51c0.64-0.44,1.29-0.85,1.93-1.24c0.64-0.39,1.41-0.69,2.31-0.92
			C535.7,169.83,536.82,169.72,538.15,169.75z"/>
		<path class="st0" d="M585.27,177.72c-0.45,1.33-0.85,2.63-1.21,3.89c-0.35,1.26-0.61,2.23-0.78,2.91
			c-0.15,0.62-0.28,1.21-0.39,1.77c-0.11,0.56-0.19,1.04-0.25,1.41l-1.02-0.25c0.26-2.33,0.24-4.23-0.06-5.7
			c-0.3-1.47-0.87-2.59-1.73-3.37c-0.85-0.78-1.94-1.34-3.27-1.66l-1.81-0.44c-0.88-0.22-1.56-0.3-2.02-0.25
			c-0.47,0.05-0.83,0.28-1.08,0.69c-0.26,0.41-0.51,1.12-0.75,2.11l-5.9,24.14c-0.23,0.96-0.34,1.69-0.3,2.19
			c0.03,0.5,0.25,0.88,0.63,1.14c0.39,0.26,1.03,0.5,1.91,0.71l2.16,0.53c1.33,0.32,2.57,0.31,3.73-0.05
			c1.16-0.36,2.28-1.17,3.36-2.45c1.08-1.28,2.11-3.11,3.1-5.49l1.01,0.25c-0.33,0.97-0.69,2.26-1.08,3.87
			c-0.18,0.71-0.41,1.72-0.69,3.03c-0.29,1.31-0.53,2.67-0.72,4.1c-1.49-0.43-3.17-0.88-5.05-1.36c-1.88-0.48-3.56-0.89-5.03-1.25
			c-1-0.24-2.33-0.57-3.97-0.97c-1.65-0.4-3.4-0.82-5.26-1.26c-1.86-0.44-3.59-0.82-5.19-1.15l0.23-0.93
			c0.96,0.17,1.69,0.22,2.21,0.15c0.52-0.07,0.92-0.36,1.22-0.88c0.3-0.52,0.58-1.33,0.86-2.45l5.63-23.03
			c0.28-1.14,0.4-2.01,0.38-2.59c-0.03-0.58-0.26-1.03-0.7-1.35c-0.44-0.32-1.11-0.61-2.01-0.86l0.23-0.93
			c1.58,0.42,3.3,0.87,5.14,1.36c1.85,0.48,3.59,0.93,5.24,1.33c1.65,0.4,2.97,0.73,3.97,0.97c1.35,0.33,2.89,0.7,4.62,1.11
			C582.35,177.12,583.9,177.45,585.27,177.72z M574.5,191.92l-0.23,0.93l-7.73-1.89l0.23-0.93L574.5,191.92z M577.28,186.1
			c-0.55,1.74-0.93,3.07-1.14,4c-0.21,0.93-0.41,1.79-0.6,2.56c-0.19,0.77-0.38,1.63-0.58,2.56c-0.2,0.94-0.45,2.3-0.77,4.09
			l-1.02-0.25c0.12-1.12,0.09-2.19-0.08-3.22c-0.17-1.03-0.56-1.91-1.15-2.67c-0.6-0.75-1.48-1.27-2.66-1.56l0.23-0.93
			c1.18,0.29,2.2,0.18,3.08-0.33c0.87-0.51,1.62-1.19,2.23-2.04c0.61-0.85,1.1-1.68,1.45-2.47L577.28,186.1z"/>
		<path class="st0" d="M611.01,188.98l-0.46,0.84c-0.84-0.43-1.53-0.67-2.06-0.73c-0.54-0.06-1.01,0.11-1.43,0.52
			c-0.42,0.41-0.91,1.13-1.48,2.16l-11.47,20.75c-0.56,1-0.9,1.8-1.03,2.38c-0.13,0.58-0.02,1.08,0.32,1.49
			c0.34,0.41,0.91,0.87,1.7,1.38l-0.46,0.84c-0.68-0.45-1.57-0.98-2.65-1.6c-1.08-0.62-2.18-1.23-3.29-1.85
			c-1.27-0.7-2.47-1.36-3.59-1.96c-1.12-0.6-2.04-1.07-2.76-1.39l0.46-0.84c0.88,0.41,1.58,0.65,2.09,0.72
			c0.52,0.07,0.99-0.11,1.41-0.53c0.42-0.42,0.91-1.13,1.47-2.14l11.47-20.75c0.57-1.03,0.92-1.83,1.04-2.4
			c0.12-0.57,0.02-1.06-0.32-1.49c-0.34-0.42-0.91-0.88-1.72-1.36l0.46-0.84c0.67,0.41,1.56,0.94,2.66,1.58
			c1.1,0.64,2.29,1.32,3.56,2.02c1.11,0.62,2.22,1.21,3.33,1.78C609.36,188.14,610.28,188.61,611.01,188.98z M618.88,196.34
			c-0.32,0.59-0.64,1.19-0.95,1.82l-26.35,16.28l0.29-1.37L618.88,196.34z M628.67,198.74l-0.46,0.84
			c-0.84-0.43-1.52-0.67-2.06-0.73c-0.54-0.06-1.01,0.11-1.43,0.52c-0.42,0.41-0.91,1.13-1.48,2.16l-11.47,20.75
			c-0.56,1-0.9,1.8-1.03,2.38c-0.13,0.58-0.02,1.08,0.32,1.49c0.34,0.41,0.91,0.87,1.7,1.38l-0.46,0.84
			c-0.66-0.44-1.54-0.97-2.65-1.6c-1.11-0.63-2.29-1.3-3.57-2c-1.11-0.62-2.23-1.22-3.33-1.82c-1.11-0.59-2.02-1.05-2.74-1.38
			l0.46-0.84c0.85,0.4,1.54,0.64,2.07,0.71c0.53,0.07,1.01-0.1,1.43-0.52c0.42-0.42,0.91-1.13,1.47-2.14l11.48-20.75
			c0.57-1.03,0.92-1.83,1.04-2.4c0.12-0.57,0.02-1.06-0.32-1.49c-0.34-0.42-0.91-0.88-1.72-1.36l0.46-0.84
			c0.67,0.41,1.55,0.93,2.64,1.57c1.08,0.64,2.18,1.26,3.3,1.88c1.27,0.7,2.47,1.35,3.6,1.94S627.96,198.39,628.67,198.74z"/>
	</g>
	<g>
		<path class="st0" d="M505.26,881.11c1.75,0.69,3.2,1.6,4.37,2.74c1.16,1.13,1.93,2.42,2.28,3.86c0.36,1.44,0.2,3.01-0.47,4.7
			c-0.62,1.57-1.59,2.92-2.91,4.07c-1.32,1.14-2.92,2.2-4.81,3.18c-1.89,0.98-3.98,1.99-6.27,3.04c-2.29,1.04-4.72,2.26-7.29,3.64
			l10.31,4.09c0.73,0.29,1.44,0.32,2.14,0.1c0.69-0.22,1.34-0.9,1.95-2.03l0.97,0.39c-0.16,0.32-0.35,0.7-0.56,1.17
			c-0.22,0.46-0.41,0.9-0.57,1.32c-0.26,0.65-0.57,1.5-0.93,2.54c-0.36,1.04-0.7,2.11-1.01,3.22l-11.62-4.61
			c-1.86-0.74-3.36-1.35-4.5-1.84c-1.14-0.49-2.28-0.92-3.4-1.3l0.35-0.89c2.05-0.8,4.14-1.76,6.28-2.88
			c2.14-1.12,4.2-2.42,6.19-3.89c1.99-1.48,3.77-3.15,5.35-5.03c1.58-1.88,2.82-3.96,3.72-6.24c0.73-1.84,1.08-3.37,1.04-4.6
			c-0.03-1.23-0.33-2.21-0.89-2.93c-0.56-0.72-1.25-1.24-2.07-1.57c-0.7-0.28-1.45-0.4-2.23-0.37c-0.78,0.03-1.44,0.27-1.97,0.71
			c0.79,0.55,1.3,1.23,1.51,2.04c0.22,0.81,0.17,1.61-0.15,2.41c-0.41,1.04-1.06,1.71-1.94,2.01c-0.89,0.3-1.75,0.28-2.6-0.05
			c-0.99-0.39-1.62-1.02-1.89-1.88c-0.28-0.86-0.24-1.73,0.1-2.58c0.32-0.8,0.82-1.44,1.52-1.92c0.69-0.48,1.43-0.84,2.21-1.08
			c1.14-0.4,2.37-0.57,3.69-0.49C502.49,880.23,503.85,880.55,505.26,881.11z"/>
		<path class="st0" d="M530.97,887.39c2.5,0.24,4.63,1.14,6.39,2.68c1.75,1.55,3.03,3.65,3.82,6.3c0.79,2.65,1.02,5.8,0.67,9.45
			c-0.34,3.55-1.18,6.61-2.51,9.17c-1.33,2.56-3.01,4.5-5.06,5.8c-2.04,1.31-4.29,1.84-6.73,1.61c-2.5-0.24-4.63-1.13-6.39-2.68
			c-1.75-1.55-3.03-3.65-3.82-6.32s-1.02-5.81-0.67-9.43c0.34-3.55,1.18-6.61,2.5-9.17c1.33-2.56,3.01-4.5,5.06-5.8
			C526.29,887.69,528.53,887.15,530.97,887.39z M530.71,888.23c-1.84-0.18-3.34,1.13-4.51,3.94c-1.17,2.8-2.01,6.9-2.53,12.29
			c-0.54,5.55-0.42,9.75,0.34,12.59c0.76,2.84,2.03,4.35,3.81,4.52c1.87,0.18,3.38-1.13,4.54-3.93c1.15-2.8,1.99-6.9,2.51-12.29
			c0.53-5.55,0.42-9.75-0.34-12.59C533.76,889.91,532.49,888.4,530.71,888.23z"/>
		<path class="st0" d="M558.06,886.36l4.42,29.3c0.15,0.98,0.35,1.71,0.61,2.2c0.26,0.49,0.64,0.81,1.15,0.94
			c0.51,0.13,1.19,0.14,2.03,0.01l0.15,0.99c-0.67,0.07-1.58,0.17-2.76,0.29c-1.17,0.13-2.39,0.29-3.65,0.48
			c-1.47,0.22-2.92,0.46-4.35,0.73c-1.43,0.26-2.55,0.47-3.35,0.63l-0.15-0.99c1.14-0.17,2-0.43,2.59-0.78
			c0.59-0.35,0.97-0.86,1.15-1.55c0.17-0.69,0.17-1.63-0.01-2.83l-3.15-20.89c-0.25-1.64-0.75-2.61-1.5-2.92
			c-0.75-0.31-2.09-0.31-4-0.02l-0.15-0.99c2.88-0.82,5.16-1.62,6.85-2.41C555.63,887.76,557,887.03,558.06,886.36z"/>
		<path class="st0" d="M580.63,876.96c0.12,0.4,0.28,0.89,0.48,1.48c0.2,0.59,0.4,1.14,0.59,1.64c0.27,0.68,0.56,1.36,0.86,2.02
			c0.31,0.67,0.68,1.38,1.1,2.13l-14.1,5.51l2.99,9.51c0.65-1.18,1.48-2.16,2.5-2.96c1.02-0.79,2.2-1.45,3.53-1.97
			c1.92-0.75,3.76-1.04,5.52-0.87c1.76,0.17,3.34,0.79,4.76,1.88c1.42,1.09,2.52,2.63,3.29,4.61c0.86,2.2,1.08,4.27,0.68,6.23
			c-0.41,1.96-1.3,3.69-2.68,5.2c-1.38,1.51-3.14,2.69-5.28,3.53c-0.96,0.38-2,0.65-3.12,0.81c-1.12,0.16-2.19,0.12-3.2-0.13
			c-0.93-0.22-1.73-0.58-2.38-1.1c-0.66-0.51-1.13-1.14-1.42-1.88c-0.37-0.95-0.39-1.87-0.05-2.75c0.34-0.88,1.01-1.53,2.03-1.92
			c0.87-0.34,1.71-0.36,2.49-0.05c0.79,0.31,1.38,0.98,1.79,2.02c0.36,0.92,0.41,1.79,0.16,2.61c-0.25,0.82-0.73,1.53-1.43,2.15
			c0.44,0.21,1.02,0.29,1.73,0.25c0.72-0.04,1.46-0.21,2.22-0.51c1.07-0.42,1.95-1.05,2.63-1.9c0.68-0.85,1.02-2.05,1.03-3.61
			c0.01-1.56-0.48-3.6-1.47-6.12c-1.07-2.73-2.38-4.66-3.95-5.79c-1.57-1.13-3.17-1.38-4.8-0.74c-0.59,0.23-1.3,0.66-2.14,1.27
			c-0.83,0.62-1.56,1.56-2.17,2.82l-0.83,0.12l-4.84-15.87c0.61-0.1,1.27-0.29,1.97-0.57l8.38-3.28c0.99-0.39,1.66-0.84,2.01-1.35
			c0.35-0.51,0.44-1.21,0.25-2.1L580.63,876.96z"/>
	</g>
	<path class="st0" d="M535.78,237.41c-6.82,0-12.36-5.55-12.36-12.36c0-6.82,5.55-12.36,12.36-12.36s12.36,5.55,12.36,12.36
		C548.14,231.86,542.6,237.41,535.78,237.41z M535.78,214.24c-5.96,0-10.8,4.85-10.8,10.8c0,5.96,4.85,10.8,10.8,10.8
		c5.96,0,10.8-4.85,10.8-10.8C546.58,219.09,541.74,214.24,535.78,214.24z"/>
	<path class="st0" d="M540,868.85c-6.82,0-12.36-5.55-12.36-12.36c0-6.82,5.55-12.36,12.36-12.36s12.36,5.55,12.36,12.36
		C552.36,863.31,546.82,868.85,540,868.85z M540,845.69c-5.96,0-10.8,4.85-10.8,10.8s4.85,10.8,10.8,10.8s10.8-4.85,10.8-10.8
		S545.96,845.69,540,845.69z"/>
	<g>
		<path class="st0" d="M384.82,663.77c-0.23,3.27-0.39,6.42-0.47,9.43c-0.09,3.02-0.13,5.33-0.13,6.93c0,1.41,0.03,2.76,0.09,4.04
			c0.06,1.28,0.11,2.37,0.17,3.27h-1.97c-0.91-5.39-2.07-9.65-3.47-12.8c-1.4-3.14-3.07-5.37-5.01-6.69
			c-1.94-1.31-4.23-1.97-6.86-1.97h-1.97v54.94c0,2.57,0.24,4.49,0.73,5.77c0.49,1.28,1.39,2.13,2.7,2.55
			c1.31,0.42,3.23,0.66,5.74,0.72v1.93c-1.77-0.06-4.13-0.13-7.07-0.19c-2.94-0.06-6.01-0.1-9.21-0.1c-3.14,0-6.12,0.03-8.92,0.1
			c-2.8,0.06-5.06,0.13-6.77,0.19v-1.93c2.57-0.06,4.51-0.3,5.83-0.72c1.31-0.42,2.2-1.27,2.66-2.55c0.46-1.28,0.69-3.21,0.69-5.77
			v-54.94h-1.89c-2.63,0-4.92,0.66-6.86,1.97c-1.94,1.32-3.6,3.53-4.97,6.64c-1.37,3.11-2.57,7.39-3.6,12.85h-1.97
			c0.11-0.9,0.19-1.99,0.21-3.27c0.03-1.28,0.04-2.63,0.04-4.04c0-1.6-0.04-3.91-0.13-6.93c-0.09-3.01-0.24-6.16-0.47-9.43
			c2.63,0.07,5.5,0.13,8.61,0.19s6.24,0.1,9.39,0.1c3.14,0,5.97,0,8.49,0c2.57,0,5.41,0,8.53,0c3.11,0,6.24-0.03,9.39-0.1
			C379.48,663.9,382.3,663.83,384.82,663.77z"/>
		<path class="st0" d="M442.42,663.77c-0.23,2.82-0.39,5.55-0.47,8.18c-0.09,2.63-0.13,4.65-0.13,6.06c0,1.28,0.03,2.5,0.09,3.66
			c0.06,1.15,0.11,2.12,0.17,2.89h-1.97c-0.57-4.68-1.46-8.39-2.66-11.11c-1.2-2.73-2.76-4.65-4.67-5.77
			c-1.92-1.12-4.16-1.68-6.73-1.68h-3.51c-1.71,0-2.99,0.16-3.82,0.48c-0.83,0.32-1.39,0.95-1.67,1.88
			c-0.29,0.93-0.43,2.42-0.43,4.47v50.03c0,1.99,0.14,3.46,0.43,4.43c0.29,0.96,0.84,1.6,1.67,1.93c0.83,0.32,2.1,0.48,3.82,0.48
			h4.2c2.57,0,4.84-0.63,6.82-1.88c1.97-1.25,3.66-3.38,5.06-6.4c1.4-3.01,2.47-7.09,3.21-12.22h1.97
			c-0.17,2.05-0.26,4.75-0.26,8.08c0,1.48,0.03,3.56,0.09,6.25c0.06,2.69,0.23,5.49,0.51,8.37c-2.91-0.13-6.2-0.21-9.86-0.24
			c-3.66-0.03-6.92-0.05-9.77-0.05c-1.94,0-4.52,0-7.72,0c-3.2,0-6.6,0.02-10.2,0.05c-3.6,0.03-6.94,0.11-10.03,0.24v-1.93
			c1.83-0.13,3.2-0.38,4.11-0.77c0.91-0.39,1.53-1.15,1.84-2.31c0.31-1.15,0.47-2.89,0.47-5.2v-47.73c0-2.37-0.16-4.12-0.47-5.24
			c-0.32-1.12-0.94-1.89-1.89-2.31c-0.94-0.42-2.3-0.66-4.07-0.72v-1.93c3.09,0.07,6.43,0.13,10.03,0.19c3.6,0.06,7,0.1,10.2,0.1
			c3.2,0,5.77,0,7.72,0c2.63,0,5.61-0.02,8.96-0.05C436.81,663.98,439.8,663.9,442.42,663.77z M429.05,696.67v1.93h-15v-1.93H429.05
			z M431.54,683.97c-0.23,3.66-0.33,6.45-0.3,8.37c0.03,1.92,0.04,3.69,0.04,5.29c0,1.6,0.03,3.37,0.09,5.29
			c0.06,1.93,0.2,4.71,0.43,8.37h-1.97c-0.29-2.24-0.81-4.33-1.59-6.25c-0.77-1.92-1.87-3.48-3.3-4.67
			c-1.43-1.19-3.29-1.78-5.57-1.78v-1.93c2.29,0,4.11-0.7,5.49-2.12c1.37-1.41,2.43-3.1,3.17-5.05c0.74-1.96,1.26-3.8,1.54-5.53
			H431.54z"/>
		<path class="st0" d="M520.35,663.77v1.93c-1.77,0.06-3.13,0.31-4.07,0.72c-0.94,0.42-1.57,1.19-1.89,2.31
			c-0.32,1.12-0.47,2.87-0.47,5.24v47.73c0,2.31,0.16,4.04,0.47,5.2c0.31,1.15,0.94,1.92,1.89,2.31c0.94,0.38,2.3,0.64,4.07,0.77
			v1.93c-1.49-0.13-3.43-0.21-5.83-0.24c-2.4-0.03-4.97-0.05-7.72-0.05c-2.4,0-4.79,0.02-7.16,0.05c-2.37,0.03-4.3,0.11-5.79,0.24
			v-1.93c1.83-0.13,3.2-0.38,4.11-0.77c0.91-0.39,1.53-1.15,1.84-2.31c0.31-1.15,0.47-2.89,0.47-5.2v-47.73
			c0-3.53-0.43-5.79-1.29-6.78s-2.74-1.49-5.66-1.49h-8.83c-2.92,0-4.8,0.5-5.66,1.49s-1.29,3.26-1.29,6.78v47.73
			c0,2.31,0.16,4.04,0.47,5.2c0.31,1.15,0.94,1.92,1.89,2.31c0.94,0.38,2.3,0.64,4.07,0.77v1.93c-1.54-0.13-3.49-0.21-5.83-0.24
			c-2.34-0.03-4.71-0.05-7.11-0.05c-2.74,0-5.32,0.02-7.72,0.05c-2.4,0.03-4.34,0.11-5.83,0.24v-1.93c1.83-0.13,3.2-0.38,4.11-0.77
			c0.91-0.39,1.53-1.15,1.84-2.31c0.31-1.15,0.47-2.89,0.47-5.2v-47.73c0-2.37-0.16-4.12-0.47-5.24c-0.32-1.12-0.94-1.89-1.89-2.31
			c-0.94-0.42-2.3-0.66-4.07-0.72v-1.93c1.49,0.07,3.43,0.13,5.83,0.19s4.97,0.1,7.72,0.1c3.37,0,6.71-0.05,10.03-0.14
			c3.31-0.1,5.97-0.14,7.97-0.14c2,0,4.63,0.05,7.89,0.14c3.26,0.1,6.54,0.14,9.86,0.14c2.74,0,5.32-0.03,7.72-0.1
			S518.86,663.83,520.35,663.77z"/>
		<path class="st0" d="M588.92,663.77v1.93c-1.94,0.06-3.42,0.31-4.41,0.72c-1,0.42-1.67,1.19-2.02,2.31
			c-0.34,1.12-0.51,2.87-0.51,5.24v47.73c0,2.31,0.17,4.04,0.51,5.2c0.34,1.15,1.01,1.92,2.02,2.31c1,0.38,2.47,0.64,4.41,0.77v1.93
			c-1.54-0.13-3.56-0.21-6.04-0.24c-2.49-0.03-5.13-0.05-7.93-0.05c-2.69,0-5.31,0.02-7.89,0.05c-2.57,0.03-4.69,0.11-6.34,0.24
			v-1.93c2.11-0.13,3.73-0.38,4.84-0.77c1.12-0.39,1.86-1.15,2.23-2.31s0.56-2.89,0.56-5.2v-47.73c0-3.53-0.44-5.79-1.33-6.78
			c-0.89-0.99-2.42-1.49-4.59-1.49h-0.6c-1.37,0-2.47,0.21-3.3,0.63c-0.83,0.42-1.43,1.22-1.8,2.41c-0.37,1.19-0.64,2.93-0.81,5.24
			c-0.34,4.49-0.69,9.41-1.03,14.77c-0.34,5.36-0.8,10.65-1.37,15.88c-0.57,5.23-1.44,10.01-2.61,14.34
			c-1.17,4.33-2.79,7.79-4.84,10.39c-2.06,2.6-4.74,3.9-8.06,3.9c-2.57,0-4.79-0.82-6.64-2.45c-1.86-1.64-2.79-3.8-2.79-6.5
			c0-2.5,0.76-4.49,2.27-5.97c1.51-1.48,3.36-2.21,5.53-2.21c1.89,0,3.41,0.53,4.59,1.59c1.17,1.06,1.76,2.52,1.76,4.38
			c0,2.25-0.64,4.12-1.93,5.63c-1.29,1.51-2.93,2.58-4.93,3.22c0.29,0.19,0.61,0.32,0.99,0.39c0.37,0.06,0.76,0.1,1.16,0.1
			c2.63,0,4.83-1.12,6.6-3.37c1.77-2.25,3.21-5.31,4.33-9.19c1.11-3.88,1.99-8.29,2.61-13.23c0.63-4.94,1.11-10.12,1.46-15.54
			c0.34-5.42,0.66-10.79,0.94-16.12c0.23-3.4-0.1-5.6-0.99-6.59c-0.89-0.99-2.87-1.55-5.96-1.68v-1.93c1.2,0.07,2.63,0.13,4.29,0.19
			c1.66,0.06,3.17,0.1,4.54,0.1c1.31,0,2.58-0.05,3.81-0.14c1.23-0.1,2.47-0.14,3.73-0.14c2.17,0,4.14,0.05,5.92,0.14
			c1.77,0.1,3.89,0.14,6.34,0.14c1.43,0,2.99-0.02,4.67-0.05c1.69-0.03,3.29-0.06,4.8-0.1C586.62,663.88,587.9,663.83,588.92,663.77
			z"/>
		<path class="st0" d="M627.5,663.77v1.93c-1.77,0.06-3.13,0.31-4.07,0.72c-0.94,0.42-1.57,1.19-1.89,2.31
			c-0.31,1.12-0.47,2.87-0.47,5.24v47.73c0,2.31,0.16,4.04,0.47,5.2c0.31,1.15,0.94,1.92,1.89,2.31c0.94,0.38,2.3,0.64,4.07,0.77
			v1.93c-1.54-0.13-3.49-0.21-5.83-0.24c-2.34-0.03-4.72-0.05-7.11-0.05c-2.74,0-5.31,0.02-7.72,0.05c-2.4,0.03-4.34,0.11-5.83,0.24
			v-1.93c1.83-0.13,3.2-0.38,4.11-0.77c0.91-0.39,1.53-1.15,1.84-2.31c0.31-1.15,0.47-2.89,0.47-5.2v-47.73
			c0-2.37-0.16-4.12-0.47-5.24c-0.31-1.12-0.94-1.89-1.89-2.31c-0.94-0.42-2.3-0.66-4.07-0.72v-1.93c1.48,0.07,3.43,0.13,5.83,0.19
			c2.4,0.06,4.97,0.1,7.72,0.1c2.4,0,4.77-0.03,7.11-0.1S625.96,663.83,627.5,663.77z M647.22,669.06c0,1.35,0.03,2.73,0.09,4.14
			l-28.63,54.36l-0.77-2.69L647.22,669.06z M665.56,663.77v1.93c-1.77,0.06-3.13,0.31-4.07,0.72c-0.94,0.42-1.57,1.19-1.89,2.31
			c-0.31,1.12-0.47,2.87-0.47,5.24v47.73c0,2.31,0.16,4.04,0.47,5.2s0.94,1.92,1.89,2.31c0.94,0.38,2.3,0.64,4.07,0.77v1.93
			c-1.49-0.13-3.43-0.21-5.83-0.24c-2.4-0.03-4.97-0.05-7.72-0.05c-2.4,0-4.79,0.02-7.16,0.05c-2.37,0.03-4.3,0.11-5.79,0.24v-1.93
			c1.77-0.13,3.13-0.38,4.07-0.77c0.94-0.39,1.57-1.15,1.89-2.31c0.31-1.15,0.47-2.89,0.47-5.2v-47.73c0-2.37-0.16-4.12-0.47-5.24
			c-0.31-1.12-0.94-1.89-1.89-2.31c-0.94-0.42-2.3-0.66-4.07-0.72v-1.93c1.49,0.07,3.41,0.13,5.79,0.19c2.37,0.06,4.76,0.1,7.16,0.1
			c2.74,0,5.31-0.03,7.72-0.1C662.13,663.9,664.07,663.83,665.56,663.77z"/>
		<path class="st0" d="M704.39,663.77v1.93c-1.77,0.06-3.13,0.31-4.07,0.72c-0.94,0.42-1.57,1.19-1.89,2.31
			c-0.31,1.12-0.47,2.87-0.47,5.24v47.73c0,2.31,0.16,4.04,0.47,5.2c0.31,1.15,0.94,1.92,1.89,2.31c0.94,0.38,2.3,0.64,4.07,0.77
			v1.93c-1.54-0.13-3.49-0.21-5.83-0.24c-2.34-0.03-4.72-0.05-7.11-0.05c-2.74,0-5.31,0.02-7.72,0.05c-2.4,0.03-4.34,0.11-5.83,0.24
			v-1.93c1.83-0.13,3.2-0.38,4.11-0.77c0.91-0.39,1.53-1.15,1.84-2.31s0.47-2.89,0.47-5.2v-47.73c0-2.37-0.16-4.12-0.47-5.24
			c-0.31-1.12-0.94-1.89-1.89-2.31c-0.94-0.42-2.3-0.66-4.07-0.72v-1.93c1.48,0.07,3.43,0.13,5.83,0.19c2.4,0.06,4.97,0.1,7.72,0.1
			c2.4,0,4.77-0.03,7.11-0.1S702.85,663.83,704.39,663.77z M724.11,669.06c0,1.35,0.03,2.73,0.09,4.14l-28.63,54.36l-0.77-2.69
			L724.11,669.06z M742.45,663.77v1.93c-1.77,0.06-3.13,0.31-4.07,0.72c-0.94,0.42-1.57,1.19-1.89,2.31
			c-0.31,1.12-0.47,2.87-0.47,5.24v47.73c0,2.31,0.16,4.04,0.47,5.2c0.31,1.15,0.94,1.92,1.89,2.31c0.94,0.38,2.3,0.64,4.07,0.77
			v1.93c-1.49-0.13-3.43-0.21-5.83-0.24c-2.4-0.03-4.97-0.05-7.72-0.05c-2.4,0-4.79,0.02-7.16,0.05c-2.37,0.03-4.3,0.11-5.79,0.24
			v-1.93c1.77-0.13,3.13-0.38,4.07-0.77c0.94-0.39,1.57-1.15,1.89-2.31c0.31-1.15,0.47-2.89,0.47-5.2v-47.73
			c0-2.37-0.16-4.12-0.47-5.24c-0.31-1.12-0.94-1.89-1.89-2.31c-0.94-0.42-2.3-0.66-4.07-0.72v-1.93c1.49,0.07,3.41,0.13,5.79,0.19
			c2.37,0.06,4.76,0.1,7.16,0.1c2.74,0,5.31-0.03,7.72-0.1C739.02,663.9,740.96,663.83,742.45,663.77z"/>
		<path class="st0" d="M497.71,754.36v1.93c-1.77,0.06-3.13,0.31-4.07,0.72c-0.94,0.42-1.57,1.19-1.89,2.31
			c-0.32,1.12-0.47,2.87-0.47,5.24v47.73c0,2.31,0.16,4.04,0.47,5.2c0.31,1.15,0.94,1.92,1.89,2.31c0.94,0.38,2.3,0.64,4.07,0.77
			v1.93c-1.49-0.13-3.43-0.21-5.83-0.24c-2.4-0.03-4.97-0.05-7.72-0.05c-2.4,0-4.79,0.02-7.16,0.05c-2.37,0.03-4.3,0.11-5.79,0.24
			v-1.93c1.83-0.13,3.2-0.38,4.11-0.77c0.91-0.39,1.53-1.15,1.84-2.31c0.31-1.15,0.47-2.89,0.47-5.2v-47.73
			c0-3.53-0.43-5.79-1.29-6.78c-0.86-0.99-2.74-1.49-5.66-1.49h-8.83c-2.92,0-4.8,0.5-5.66,1.49s-1.29,3.26-1.29,6.78v47.73
			c0,2.31,0.16,4.04,0.47,5.2c0.31,1.15,0.94,1.92,1.89,2.31c0.94,0.38,2.3,0.64,4.07,0.77v1.93c-1.54-0.13-3.49-0.21-5.83-0.24
			c-2.34-0.03-4.71-0.05-7.11-0.05c-2.74,0-5.32,0.02-7.72,0.05c-2.4,0.03-4.34,0.11-5.83,0.24v-1.93c1.83-0.13,3.2-0.38,4.11-0.77
			c0.91-0.39,1.53-1.15,1.84-2.31c0.31-1.15,0.47-2.89,0.47-5.2v-47.73c0-2.37-0.16-4.12-0.47-5.24c-0.32-1.12-0.94-1.89-1.89-2.31
			c-0.94-0.42-2.3-0.66-4.07-0.72v-1.93c1.49,0.07,3.43,0.13,5.83,0.19c2.4,0.06,4.97,0.1,7.72,0.1c3.37,0,6.71-0.05,10.03-0.14
			c3.31-0.1,5.97-0.14,7.97-0.14c2,0,4.63,0.05,7.89,0.14c3.26,0.1,6.54,0.14,9.86,0.14c2.74,0,5.32-0.03,7.72-0.1
			C494.29,754.49,496.23,754.43,497.71,754.36z"/>
		<path class="st0" d="M540.49,753.02c3.77,0,6.87,0.63,9.3,1.88c2.43,1.25,4.59,2.71,6.47,4.38c1.14,0.96,2.01,1.08,2.61,0.34
			c0.6-0.74,1.01-2.48,1.24-5.24h1.97c-0.12,2.12-0.2,4.7-0.26,7.75c-0.06,3.05-0.09,7.07-0.09,12.08h-1.97
			c-0.46-2.44-0.93-4.44-1.41-6.01c-0.49-1.57-1.11-2.97-1.89-4.19c-0.77-1.22-1.82-2.47-3.13-3.75c-1.43-1.6-3.09-2.79-4.97-3.56
			c-1.89-0.77-3.86-1.15-5.91-1.15c-3.09,0-5.72,0.92-7.89,2.74c-2.17,1.83-3.93,4.32-5.27,7.46c-1.34,3.14-2.33,6.69-2.96,10.63
			c-0.63,3.94-0.94,8.03-0.94,12.27c0,4.3,0.33,8.42,0.99,12.36c0.66,3.94,1.68,7.46,3.09,10.54c1.4,3.08,3.21,5.52,5.44,7.31
			c2.23,1.8,4.86,2.69,7.89,2.69c1.89,0,3.79-0.4,5.7-1.2c1.91-0.8,3.56-1.97,4.93-3.51c2.23-1.92,3.74-4.31,4.54-7.17
			c0.8-2.85,1.4-6.65,1.8-11.4h1.97c0,6.1,0.03,11.02,0.09,14.77c0.06,3.75,0.14,6.91,0.26,9.48h-1.97
			c-0.23-2.76-0.61-4.49-1.16-5.2c-0.54-0.7-1.44-0.61-2.7,0.29c-2.11,1.67-4.36,3.13-6.73,4.38c-2.37,1.25-5.42,1.88-9.13,1.88
			c-6.06,0-11.36-1.38-15.9-4.14c-4.54-2.76-8.07-6.74-10.59-11.93c-2.52-5.2-3.77-11.45-3.77-18.76c0-7.18,1.3-13.47,3.9-18.86
			c2.6-5.39,6.17-9.59,10.72-12.6C529.3,754.52,534.55,753.02,540.49,753.02z M535.43,780.15c1.49,0,2.86,0.34,4.11,1.01
			c1.26,0.67,2.46,1.46,3.6,2.36c1.14,0.9,2.3,1.68,3.47,2.36c1.17,0.67,2.41,1.01,3.73,1.01c1.08,0,2.21-0.42,3.39-1.25
			c1.17-0.83,2.02-2.37,2.53-4.62l1.37,0.48c-0.69,5.13-2,8.96-3.94,11.5c-1.94,2.54-4.09,3.8-6.43,3.8c-1.6,0-3.01-0.34-4.24-1.01
			c-1.23-0.67-2.4-1.46-3.51-2.36c-1.11-0.9-2.27-1.68-3.47-2.36c-1.2-0.67-2.52-1.01-3.94-1.01c-1.32,0-2.63,0.45-3.94,1.35
			c-1.32,0.9-2.31,2.34-3,4.33l-0.43-0.48c0.74-5.13,2.13-8.93,4.16-11.4C530.9,781.39,533.09,780.15,535.43,780.15z"/>
		<path class="st0" d="M639.5,754.36v1.93c-1.83,0.06-3.2,0.31-4.11,0.72c-0.92,0.42-1.53,1.19-1.84,2.31
			c-0.31,1.12-0.47,2.87-0.47,5.24v47.73c0,3.53,0.39,5.79,1.16,6.78c0.77,0.99,2.53,1.49,5.27,1.49h2.57
			c-0.23,2.5-0.39,4.91-0.47,7.22c-0.09,2.31-0.13,4.07-0.13,5.29c0,2.56,0.09,4.65,0.26,6.25h-1.97
			c-0.57-4.23-1.49-7.59-2.74-10.06c-1.26-2.47-2.87-4.22-4.84-5.24c-1.97-1.03-4.3-1.54-6.99-1.54c-1.89,0-3.84,0-5.87,0
			c-2.03,0-4.02,0-5.96,0c-1.94,0-3.72,0-5.31,0c-2,0-4.63-0.05-7.89-0.14c-3.26-0.1-6.57-0.14-9.94-0.14
			c-2.74,0-5.33,0.02-7.76,0.05c-2.43,0.03-4.36,0.11-5.79,0.24v-1.93c1.77-0.13,3.13-0.38,4.07-0.77c0.94-0.39,1.57-1.15,1.89-2.31
			c0.31-1.15,0.47-2.89,0.47-5.2v-47.73c0-2.37-0.16-4.12-0.47-5.24c-0.31-1.12-0.94-1.89-1.89-2.31c-0.94-0.42-2.3-0.66-4.07-0.72
			v-1.93c1.43,0.07,3.36,0.13,5.79,0.19c2.43,0.06,5.02,0.1,7.76,0.1c2.4,0,4.77-0.03,7.11-0.1c2.34-0.06,4.29-0.13,5.83-0.19v1.93
			c-1.83,0.06-3.2,0.31-4.12,0.72c-0.92,0.42-1.53,1.19-1.84,2.31c-0.31,1.12-0.47,2.87-0.47,5.24v47.73c0,3.53,0.43,5.79,1.29,6.78
			c0.86,0.99,2.74,1.49,5.66,1.49h8.83c2.91,0,4.8-0.5,5.66-1.49c0.86-0.99,1.29-3.26,1.29-6.78v-47.73c0-2.37-0.16-4.12-0.47-5.24
			c-0.31-1.12-0.94-1.89-1.89-2.31c-0.94-0.42-2.3-0.66-4.07-0.72v-1.93c1.49,0.07,3.42,0.13,5.79,0.19c2.37,0.06,4.76,0.1,7.16,0.1
			c2.74,0,5.31-0.03,7.72-0.1C636.07,754.49,638.01,754.43,639.5,754.36z"/>
	</g>
	<path class="st0" d="M697.4,649.75H379.48V331.83H697.4V649.75z M388.85,640.38h299.17V341.2H388.85V640.38z"/>
	<g>
		<path class="st1" d="M439.95,516.79l-0.05-0.05c-3.76,3.76-6.53,6.53-9.94,9.94L439.95,516.79z"/>
		<polygon points="430.51,527.23 429.41,526.12 439.91,515.63 441,516.74 440.5,517.34 		"/>
	</g>
	<g>
		<path class="st1" d="M446.07,522.9c0,0-4.06,3.78,0.06,0.06L446.07,522.9z"/>
		<path d="M444.19,525.46c-0.18,0-0.3-0.13-0.48-0.33c-0.35-0.38-0.47-0.52,0.12-1.16l0,0l0,0c0.33-0.35,0.87-0.86,1.7-1.63
			l0.56-0.52l1.17,1.19l-0.61,0.55c-0.84,0.76-1.38,1.25-1.76,1.54c-0.01,0.01-0.01,0.01-0.01,0.01l0,0
			C444.55,525.36,444.35,525.46,444.19,525.46z"/>
	</g>
	<path d="M630.03,634.36c-13.32,0-26.63-5.07-36.77-15.21l-54.82-54.82l-54.82,54.82c-20.27,20.28-53.26,20.28-73.54,0
		c-20.27-20.27-20.27-53.26,0-73.54l54.82-54.82l-54.82-54.82c-20.27-20.27-20.27-53.26,0-73.54c9.82-9.82,22.88-15.23,36.77-15.23
		c13.89,0,26.95,5.41,36.77,15.23l54.82,54.82l54.82-54.82c9.82-9.82,22.88-15.23,36.77-15.23c0,0,0,0,0,0
		c13.89,0,26.95,5.41,36.77,15.23c20.28,20.27,20.28,53.26,0,73.54l-54.82,54.82l54.82,54.82c20.28,20.28,20.27,53.27,0,73.54
		C656.66,629.29,643.34,634.36,630.03,634.36z M538.44,551.08l61.45,61.45c16.62,16.62,43.67,16.62,60.29,0
		c16.62-16.62,16.62-43.66,0-60.29l-61.45-61.45l61.45-61.45c16.62-16.62,16.62-43.66,0-60.29c-8.05-8.05-18.76-12.49-30.14-12.49
		c-11.39,0-22.09,4.43-30.14,12.49l-61.45,61.45l-61.45-61.45c-16.62-16.62-43.66-16.62-60.29,0c-16.62,16.62-16.62,43.67,0,60.29
		l61.45,61.45l-61.45,61.45c-16.62,16.62-16.62,43.67,0,60.29c16.62,16.62,43.66,16.62,60.29,0L538.44,551.08z"/>
	<g>
		<g>
			<g>
				<path class="st2" d="M565.77,591.06L540,616.84l-93.87-93.87c-6.87,6.59-10,9.88-10,9.88L540,636.72l35.08-35.08l0.48-0.48
					L565.77,591.06z"/>
				<path d="M540,637.82L435.03,532.86l0.53-0.55c0.03-0.03,3.22-3.37,10.03-9.9l0.55-0.53L540,615.73l25.78-25.78l10.88,11.21
					L540,637.82z M437.22,532.83L540,635.61l34.47-34.47l-8.7-8.97L540,617.94l-93.88-93.88
					C441.24,528.75,438.34,531.69,437.22,532.83z"/>
			</g>
			<g>
				<polygon class="st2" points="682.41,494.31 645.1,457 635.16,466.94 662.53,494.31 572.05,584.78 581.99,594.72 				"/>
				<path d="M581.99,595.83l-11.05-11.05l90.48-90.48l-27.37-27.37l11.04-11.04l38.41,38.41L581.99,595.83z M573.16,584.78
					l8.84,8.84l99.31-99.31l-36.2-36.2l-8.84,8.84l27.37,27.37L573.16,584.78z"/>
			</g>
			<g>
				<polygon class="st2" points="639.16,451.05 540,351.89 506.58,385.31 516.47,395.3 540,371.77 629.23,461.01 				"/>
				<path d="M629.23,462.11l-0.55-0.55L540,372.88l-23.53,23.53l-10.99-11.1L540,350.79l100.26,100.26L629.23,462.11z M540,370.67
					l89.23,89.23l8.82-8.85L540,353l-32.32,32.32l8.79,8.88L540,370.67z"/>
			</g>
			<g>
				<path class="st2" d="M500.47,391.43l-61.42,61.42l-5.97,5.97l-35.49,35.49l32.37,32.37c3.41-3.41,6.18-6.18,9.94-9.94
					l-22.43-22.43l25.14-25.14l7.18-7.18l60.62-60.62L500.47,391.43z"/>
				<path d="M429.96,527.78l-33.48-33.48l103.98-103.98l11.04,11.05l-92.94,92.94L441,516.74L429.96,527.78z M398.69,494.31
					l31.27,31.27l8.84-8.84l-22.43-22.43l92.94-92.94l-8.84-8.84L398.69,494.31z"/>
			</g>
		</g>
		<g>
			<path class="st2" d="M540,543.38l-49.07-49.07L540,445.23l49.07,49.07L540,543.38z M513.02,494.31L540,521.29l26.98-26.98
				L540,467.32L513.02,494.31z"/>
			<path d="M540,544.48l-50.18-50.18L540,444.13l50.18,50.18L540,544.48z M492.03,494.31L540,542.28l47.97-47.97L540,446.34
				L492.03,494.31z M540,522.39l-28.09-28.09L540,466.22l28.09,28.09L540,522.39z M514.12,494.31L540,520.18l25.88-25.88L540,468.43
				L514.12,494.31z"/>
		</g>
		<g>
			<circle class="st2" cx="540" cy="494.31" r="12.26"/>
			<path d="M540,507.35c-7.19,0-13.04-5.85-13.04-13.04c0-7.19,5.85-13.04,13.04-13.04c7.19,0,13.04,5.85,13.04,13.04
				C553.04,501.5,547.19,507.35,540,507.35z M540,482.82c-6.33,0-11.48,5.15-11.48,11.48c0,6.33,5.15,11.48,11.48,11.48
				s11.48-5.15,11.48-11.48C551.48,487.97,546.33,482.82,540,482.82z"/>
		</g>
	</g>
	<polygon points="499.22,244.82 499.22,262.2 482.47,244.82 	"/>
	<polygon points="616.87,183.5 622.72,186.69 613.95,188.02 	"/>
	<polygon points="508,746.22 508,764.96 528.09,746.22 	"/>
	<polygon points="707.94,645.06 707.94,663.81 728.03,645.06 	"/>
</g>
</svg>
